{"title":"The Smurfs 2011 Blu-Ray 1080p x264 Dual Audio [Eng DD 5.1+ Hindi","uid":11008130,"size":3236300128,"categoryP":"video","categoryS":"hd___movies","magnet":"?xt=urn:btih:7857911e0d4e8ad84c2f146b941d3823e878f670&amp;dn=The+Smurfs+2011+Blu-Ray+1080p+x264+Dual+Audio+%5BEng+DD+5.1%2B+Hindi&amp;tr=udp%3A%2F%2Ftracker.openbittorrent.com%3A80&amp;tr=udp%3A%2F%2Fopen.demonii.com%3A1337&amp;tr=udp%3A%2F%2Ftracker.coppersurfer.tk%3A6969&amp;tr=udp%3A%2F%2Fexodus.desync.com%3A6969","seeders":3,"leechers":3,"uploader":"honey8ee","files":2,"time":1410283285,"description":"[center][img]http://i.imgur.com/h3RZB.png[/img]\n\n\nSource                                   : 1080p HD MAniaCS\nFormat                                   : Matroska\nFormat version                           : Version 4 / Version 2\nFile size                                : 3.00 GiB\nDuration                                 : 1h 42mn\nOverall bit rate                         : 4 178 Kbps\nMovie name                               : The Smurfs 2011 Blu-Ray 1080p x264 Dual Audio [Eng DD 5.1+ Hindi DD5.1]...Hon3y\n\nVideo\nID                                       : 2\nFormat                                   : AVC\nFormat/Info                              : Advanced Video Codec\nFormat profile                           : &lt;a class=&quot;__cf_email__&quot; href=&quot;/cdn-cgi/l/email-protection&quot; data-cfemail=&quot;3971505e5179750d1708&quot;&gt;[email&amp;#160;protected]&lt;/a&gt;&lt;script cf-hash='f9e31' type=&quot;text/javascript&quot;&gt;\n/* &lt;![CDATA[ */!function(){try{var t=&quot;currentScript&quot;in document?document.currentScript:function(){for(var t=document.getElementsByTagName(&quot;script&quot;),e=t.length;e--;)if(t[e].getAttribute(&quot;cf-hash&quot;))return t[e]}();if(t&amp;&amp;t.previousSibling){var e,r,n,i,c=t.previousSibling,a=c.getAttribute(&quot;data-cfemail&quot;);if(a){for(e=&quot;&quot;,r=parseInt(a.substr(0,2),16),n=2;a.length-n;n+=2)i=parseInt(a.substr(n,2),16)^r,e+=String.fromCharCode(i);e=document.createTextNode(e),c.parentNode.replaceChild(e,c)}}}catch(u){}}();/* ]]&gt; */&lt;/script&gt;\nFormat settings, CABAC                   : Yes\nFormat settings, ReFrames                : 4 frames\nCodec ID                                 : V_MPEG4/ISO/AVC\nDuration                                 : 1h 42mn\nBit rate                                 : 3 280 Kbps\nWidth                                    : 1 920 pixels\nHeight                                   : 1 080 pixels\nDisplay aspect ratio                     : 16:9\nFrame rate mode                          : Constant\nFrame rate                               : 23.976 fps\nColor space                              : YUV\nChroma subsampling                       : 4:2:0\nBit depth                                : 10 bits\nScan type                                : Progressive\nBits/(Pixel*Frame)                       : 0.066\nStream size                              : 2.29 GiB (77%)\nTitle                                    : Bh@iyo888@Hon3yHD\nWriting library                          : x264 \n\nAudio #1\nID                                       : 1\nFormat                                   : AC-3\nFormat/Info                              : Audio Coding 3\nMode extension                           : CM (complete main)\nFormat settings, Endianness              : Big\nCodec ID                                 : A_AC3\nDuration                                 : 1h 42mn\nBit rate mode                            : Constant\nBit rate                                 : 448 Kbps\nChannel(s)                               : 6 channels\nChannel positions                        : Front: L C R, Side: L R, LFE\nSampling rate                            : 48.0 KHz\nBit depth                                : 16 bits\nCompression mode                         : Lossy\nStream size                              : 329 MiB (11%)\nTitle                                    : Bh@iyo888@Hon3yHD\nLanguage                                 : Hindi\nDefault                                  : Yes\nForced                                   : No\n\nAudio #2\nID                                       : 3\nFormat                                   : AC-3\nFormat/Info                              : Audio Coding 3\nMode extension                           : CM (complete main)\nFormat settings, Endianness              : Big\nCodec ID                                 : A_AC3\nDuration                                 : 1h 42mn\nBit rate mode                            : Constant\nBit rate                                 : 448 Kbps\nChannel(s)                               : 6 channels\nChannel positions                        : Front: L C R, Side: L R, LFE\nSampling rate                            : 48.0 KHz\nBit depth                                : 16 bits\nCompression mode                         : Lossy\nStream size                              : 329 MiB (11%)\nTitle                                    : Bh@iyo888@Hon3yHD\nLanguage                                 : English\nDefault                                  : No\nForced                                   : No\n\nFor Screen Shots:\n &lt;a href=&quot;\nhttp://www.hon3yhd.com/index.php?page=torrent-details&amp;id=7857911e0d4e8ad84c2f146b941d3823e878f670&quot; rel=&quot;nofollow&quot; target=&quot;_NEW&quot;&gt;\nhttp://www.hon3yhd.com/index.php?page=torrent-details&amp;id=7857911e0d4e8ad84c2f146b941d3823e878f670&lt;/a&gt;","torrent":{"xt":"urn:btih:7857911e0d4e8ad84c2f146b941d3823e878f670","amp;dn":"The+Smurfs+2011+Blu-Ray+1080p+x264+Dual+Audio+%5BEng+DD+5.1%2B+Hindi","amp;tr":["udp%3A%2F%2Ftracker.openbittorrent.com%3A80","udp%3A%2F%2Fopen.demonii.com%3A1337","udp%3A%2F%2Ftracker.coppersurfer.tk%3A6969","udp%3A%2F%2Fexodus.desync.com%3A6969"],"infoHash":"7857911e0d4e8ad84c2f146b941d3823e878f670","infoHashBuffer":{"type":"Buffer","data":[120,87,145,30,13,78,138,216,76,47,20,107,148,29,56,35,232,120,246,112]},"announce":[],"urlList":[]}}